# xmcd
#
# Track frame offsets:
#	183
#	6408
#	19283
#	38913
#	60443
#	83235
#	106058
#	123848
#	138923
#	166695
#	187290
#	197613
#	200275
#	212825
#	225525
#
# Disc length: 3187 seconds
#
# Revision: 0
# Processed by: cddbd v1.5PL3 Copyright (c) Steve Scherf et al.
# Submitted via: dBpowerAMP V4.0
#
DISCID=c40c710f
DTITLE=Big Bill - Allee Live and 3
DYEAR=1995
DGENRE=Blues
TTITLE0=Hie zenne kik terug
TTITLE1=Greeny
TTITLE2=Feel so bad
TTITLE3=Stoose blues
TTITLE4=Fuif in't midden van de stad
TTITLE5=Kroege van daa met
TTITLE6=Pirre for president
TTITLE7=Frakke
TTITLE8=Voordeur blues
TTITLE9=Ene me esp of ene me kees
TTITLE10=Vismet boogie
TTITLE11=Blues harp
TTITLE12=Kdroenk en goei chat soup
TTITLE13=Kwil ie weg
TTITLE14=Kwas verabbereerd
EXTD=
EXTT0=
EXTT1=
EXTT2=
EXTT3=
EXTT4=
EXTT5=
EXTT6=
EXTT7=
EXTT8=
EXTT9=
EXTT10=
EXTT11=
EXTT12=
EXTT13=
EXTT14=
PLAYORDER=
